<?xml version="1.0" encoding="utf-8"?>
<!-- Generator: Adobe Illustrator 27.5.0, SVG Export Plug-In . SVG Version: 6.00 Build 0)  -->
<svg version="1.1" xmlns="http://www.w3.org/2000/svg" xmlns:xlink="http://www.w3.org/1999/xlink" x="0px" y="0px"
	 viewBox="0 0 750 500" style="enable-background:new 0 0 750 500;" xml:space="preserve">
<g id="Background_Simple">
	<g>
		<path style="fill:#92E3A9;" d="M679.574,374.66c-2.083-17.093,67.365-114.448,36.808-156.809
			c-30.557-42.361-105.562-4.459-112.891-12.82c-7.329-8.361,42.748-103.115-7.255-139.53
			c-50.003-36.415-156.954,18.579-156.954,18.579c-5.004,1.648-32.625,16.31-56.253,29.053
			c-23.629-12.743-51.249-27.405-56.253-29.053c0,0-106.951-54.995-156.954-18.579c-50.003,36.415,0.074,131.169-7.255,139.53
			c-7.329,8.361-82.333-29.541-112.891,12.82C19.119,260.212,88.567,357.568,86.484,374.66
			c-2.083,17.093-38.891,20.809-39.586,35.672s47.919,38.645,91.672,38.645s50.697,1.486,50.697,1.486h193.761H576.79
			c0,0,6.945-1.486,50.697-1.486c43.753,0,92.367-23.781,91.672-38.645C718.465,395.469,681.658,391.753,679.574,374.66z"/>
		<path style="opacity:0.7;fill:#FFFFFF;" d="M679.574,374.66c-2.083-17.093,67.365-114.448,36.808-156.809
			c-30.557-42.361-105.562-4.459-112.891-12.82c-7.329-8.361,42.748-103.115-7.255-139.53
			c-50.003-36.415-156.954,18.579-156.954,18.579c-5.004,1.648-32.625,16.31-56.253,29.053
			c-23.629-12.743-51.249-27.405-56.253-29.053c0,0-106.951-54.995-156.954-18.579c-50.003,36.415,0.074,131.169-7.255,139.53
			c-7.329,8.361-82.333-29.541-112.891,12.82C19.119,260.212,88.567,357.568,86.484,374.66
			c-2.083,17.093-38.891,20.809-39.586,35.672s47.919,38.645,91.672,38.645s50.697,1.486,50.697,1.486h193.761H576.79
			c0,0,6.945-1.486,50.697-1.486c43.753,0,92.367-23.781,91.672-38.645C718.465,395.469,681.658,391.753,679.574,374.66z"/>
	</g>
</g>
<g id="Floor">
	
		<line style="fill:none;stroke:#263238;stroke-linecap:round;stroke-linejoin:round;stroke-miterlimit:10;" x1="15.128" y1="415.424" x2="739.095" y2="415.424"/>
</g>
<g id="Lamp">
	<g>
		
			<rect x="697.97" y="142.287" style="fill:#263238;stroke:#263238;stroke-linecap:round;stroke-linejoin:round;stroke-miterlimit:10;" width="4.656" height="273.137"/>
		
			<rect x="676.054" y="132.976" style="fill:#92E3A9;stroke:#263238;stroke-linecap:round;stroke-linejoin:round;stroke-miterlimit:10;" width="50.039" height="55.869"/>
		
			<rect x="676.054" y="408.818" style="fill:#263238;stroke:#263238;stroke-linecap:round;stroke-linejoin:round;stroke-miterlimit:10;" width="50.039" height="6.606"/>
	</g>
</g>
<g id="Plant">
	<g>
		<g>
			<path style="fill:#92E3A9;stroke:#263238;stroke-linecap:round;stroke-linejoin:round;stroke-miterlimit:10;" d="M35.451,268.699
				c0,0-2.439,6.708-7.623,7.623c-5.184,0.915-14.331-9.147-8.538-14.331C25.083,256.807,33.011,265.04,35.451,268.699z"/>
			<path style="fill:#92E3A9;stroke:#263238;stroke-linecap:round;stroke-linejoin:round;stroke-miterlimit:10;" d="M43.379,235.768
				c0,0-7.623,18.6-4.574,27.747c3.049,9.148,21.954,15.856,27.443,3.964c5.489-11.892-6.708-28.662-11.282-32.321
				C50.392,231.499,44.903,232.719,43.379,235.768z"/>
			<path style="fill:#92E3A9;stroke:#263238;stroke-linecap:round;stroke-linejoin:round;stroke-miterlimit:10;" d="M87.896,243.696
				c0,0-13.112,11.892-14.636,23.784c-1.525,11.892,7.318,16.161,16.465,14.636c9.147-1.525,13.721-24.698,10.977-35.37
				C97.959,236.073,87.896,243.696,87.896,243.696z"/>
			<g>
				<path style="fill:#92E3A9;stroke:#263238;stroke-linecap:round;stroke-linejoin:round;stroke-miterlimit:10;" d="
					M90.336,309.558c0,0-14.636,0.61-15.246,7.623c-0.61,7.013,6.403,8.538,13.416,2.439
					C95.519,313.522,96.434,309.863,90.336,309.558z"/>
				<path style="fill:none;stroke:#263238;stroke-miterlimit:10;" d="M75.332,318.852c0,0,11.535-5.277,16.729-6.194"/>
			</g>
			<g>
				<path style="fill:#92E3A9;stroke:#263238;stroke-linecap:round;stroke-linejoin:round;stroke-miterlimit:10;" d="
					M93.599,355.447c0,0-10.751-9.95-16.155-5.438c-5.404,4.512-1.541,10.56,7.728,11.235
					C94.441,361.918,97.682,359.987,93.599,355.447z"/>
				<path style="fill:none;stroke:#263238;stroke-miterlimit:10;" d="M76.429,351.358c0,0,11.875,4.46,16.187,7.498"/>
			</g>
			<g>
				<path style="fill:#92E3A9;stroke:#263238;stroke-linecap:round;stroke-linejoin:round;stroke-miterlimit:10;" d="
					M36.889,352.517c0,0,14.82-13.716,22.269-7.497c7.449,6.219,2.124,14.557-10.653,15.487
					C35.727,361.437,31.261,358.775,36.889,352.517z"/>
				<path style="fill:none;stroke:#263238;stroke-miterlimit:10;" d="M60.556,346.881c0,0-16.369,6.148-22.313,10.336"/>
			</g>
			<path style="fill:#92E3A9;stroke:#263238;stroke-linecap:round;stroke-linejoin:round;stroke-miterlimit:10;" d="M54.051,324.194
				c0,0-1.524,7.318-7.013,10.062c-5.489,2.744-15.246-3.049-10.062-11.892C42.159,313.522,51.306,320.535,54.051,324.194z"/>
			<path style="fill:#92E3A9;stroke:#263238;stroke-linecap:round;stroke-linejoin:round;stroke-miterlimit:10;" d="M41.244,301.325
				c0,0-2.744-6.098-13.417-2.134c-10.672,3.964-14.941,10.062-8.233,12.197C26.303,313.522,41.244,301.325,41.244,301.325z"/>
			<path style="fill:none;stroke:#263238;stroke-miterlimit:10;" d="M39.201,301.047c0,0-11.305,1.222-17.416,6.417"/>
			<path style="fill:#92E3A9;stroke:#263238;stroke-linecap:round;stroke-linejoin:round;stroke-miterlimit:10;" d="M71.736,228.145
				c0,0,1.829,4.269,5.489,3.354c3.659-0.915,4.574-6.403,10.367-4.879c5.794,1.525,10.672,8.233,10.672,5.184
				c0-3.049-7.318-10.977-15.551-10.977C74.48,220.827,72.041,224.181,71.736,228.145z"/>
			<path style="fill:none;stroke:#263238;stroke-miterlimit:10;" d="M41.244,301.325c0,0,13.129-2.52,18.597,12.06
				c0.536,1.431,0.989,2.927,1.37,4.462"/>
			<path style="fill:#92E3A9;stroke:#263238;stroke-linecap:round;stroke-linejoin:round;stroke-miterlimit:10;" d="M96.039,287.201
				c0,0,2.744-6.098,13.417-2.134c10.672,3.964,14.941,10.062,8.232,12.197C110.98,299.397,96.039,287.201,96.039,287.201z"/>
			<path style="fill:none;stroke:#263238;stroke-miterlimit:10;" d="M98.478,287.603c0,0,11-0.611,16.194,5.805"/>
			<path style="fill:none;stroke:#263238;stroke-miterlimit:10;" d="M96.039,287.201c0,0-4.352-0.836-9.089,1.238"/>
			<path style="fill:none;stroke:#263238;stroke-miterlimit:10;" d="M48.243,276.262c-6.435-6.571-12.792-7.563-12.792-7.563
				s-9.389-2.485-13.055,0.876"/>
			<g>
				<line style="fill:none;stroke:#263238;stroke-miterlimit:10;" x1="49.549" y1="242.485" x2="48.978" y2="239.936"/>
				<path style="fill:none;stroke:#263238;stroke-miterlimit:10;" d="M64.397,377.286c0,0,1.367-52.511,0-68.457
					c-1.367-15.947-7.746-34.627-7.746-34.627l-6.498-29.016"/>
				<line style="fill:none;stroke:#263238;stroke-miterlimit:10;" x1="91.497" y1="253.759" x2="92.673" y2="251.242"/>
				<path style="fill:none;stroke:#263238;stroke-miterlimit:10;" d="M67.587,377.228c0,0,0.456-47.897,2.278-61.565
					c1.822-13.669,9.113-35.083,9.113-35.083l11.187-23.965"/>
				<path style="fill:none;stroke:#263238;stroke-miterlimit:10;" d="M75.332,318.852c0,0-3.189,27.46-5.012,58.442"/>
				<path style="fill:none;stroke:#263238;stroke-miterlimit:10;" d="M59.841,377.228c0,0,0.911-43.796-0.911-49.719
					c-1.822-5.923-4.879-3.315-4.879-3.315s-8.433,0.992-11.489,5.881"/>
				<path style="fill:none;stroke:#263238;stroke-miterlimit:10;" d="M61.934,321.258c2.384,13.357,0.185,56.015,0.185,56.015"/>
				<path style="fill:none;stroke:#263238;stroke-miterlimit:10;" d="M84.368,289.871c-2.639,1.806-5.175,4.721-6.925,9.389
					c-5.467,14.58-4.844,78.034-4.844,78.034"/>
				<path style="fill:none;stroke:#263238;stroke-miterlimit:10;" d="M49.83,278.001c2.848,3.344,5.61,7.866,7.733,13.97
					c7.29,20.959,10.024,75.234,8.657,85.258"/>
				<path style="fill:none;stroke:#263238;stroke-miterlimit:10;" d="M68.344,297.615c-0.444,26.451-0.758,79.613-0.758,79.613"/>
			</g>
			<path style="fill:none;stroke:#263238;stroke-miterlimit:10;" d="M68.4,294.323c0.301-17.491,0.655-34.608,1.009-43.815
				c0.911-23.692,2.327-22.364,2.327-22.364s1.687-5.32,11.159-4.708"/>
			<g>
				<path style="fill:#92E3A9;stroke:#263238;stroke-linecap:round;stroke-linejoin:round;stroke-miterlimit:10;" d="
					M56.732,314.297c0,0-7.623-6.798-4.574-10.141c3.049-3.343,21.954-5.795,27.442-1.449c5.489,4.346-6.708,10.475-11.282,11.813
					C63.745,315.858,58.257,315.412,56.732,314.297z"/>
				<path style="fill:none;stroke:#263238;stroke-miterlimit:10;" d="M63.772,308.731c-0.106,0.688-0.169,1.372-0.169,2.03"/>
				<path style="fill:none;stroke:#263238;stroke-miterlimit:10;" d="M66.393,300.796c0,0-1.134,2.269-1.956,5.049"/>
			</g>
			<g>
				<path style="fill:#92E3A9;stroke:#263238;stroke-linecap:round;stroke-linejoin:round;stroke-miterlimit:10;" d="
					M56.732,358.744c0,0-7.623-6.798-4.574-10.141c3.049-3.343,21.954-5.795,27.442-1.449c5.489,4.346-6.708,10.475-11.282,11.813
					C63.745,360.304,58.257,359.858,56.732,358.744z"/>
				<path style="fill:none;stroke:#263238;stroke-miterlimit:10;" d="M66.393,345.242c0,0-2.79,5.581-2.79,9.966"/>
			</g>
			<g>
				<path style="fill:#92E3A9;stroke:#263238;stroke-linecap:round;stroke-linejoin:round;stroke-miterlimit:10;" d="
					M62.407,339.946c0,0-5.176-4.615-3.105-6.885s14.906-3.935,18.632-0.984c3.727,2.951-4.554,7.112-7.66,8.02
					C67.169,341.005,63.442,340.703,62.407,339.946z"/>
				<path style="fill:none;stroke:#263238;stroke-miterlimit:10;" d="M68.966,330.779c0,0-1.895,3.789-1.895,6.766"/>
			</g>
		</g>
		
			<rect x="55.247" y="369.668" style="fill:#FFFFFF;stroke:#263238;stroke-linecap:round;stroke-linejoin:round;stroke-miterlimit:10;" width="20.635" height="45.756"/>
	</g>
</g>
<g id="Character_4">
	<g>
		<g>
			
				<rect x="663.088" y="359.557" style="fill:#FFFFFF;stroke:#263238;stroke-linecap:round;stroke-linejoin:round;stroke-miterlimit:10;" width="2.78" height="55.281"/>
			
				<rect x="525.657" y="359.557" style="fill:#FFFFFF;stroke:#263238;stroke-linecap:round;stroke-linejoin:round;stroke-miterlimit:10;" width="2.78" height="55.281"/>
			
				<rect x="532.76" y="265.054" style="fill:#FFFFFF;stroke:#263238;stroke-linecap:round;stroke-linejoin:round;stroke-miterlimit:10;" width="122.607" height="81.841"/>
			
				<rect x="543.261" y="337.906" style="fill:#FFFFFF;stroke:#263238;stroke-linecap:round;stroke-linejoin:round;stroke-miterlimit:10;" width="104.386" height="24.431"/>
			
				<rect x="521.903" y="300.135" style="fill:#FFFFFF;stroke:#263238;stroke-linecap:round;stroke-linejoin:round;stroke-miterlimit:10;" width="21.357" height="62.202"/>
			
				<rect x="647.599" y="300.135" style="fill:#FFFFFF;stroke:#263238;stroke-linecap:round;stroke-linejoin:round;stroke-miterlimit:10;" width="21.357" height="62.202"/>
		</g>
		<g>
			<g>
				<path style="fill:#FFFFFF;stroke:#263238;stroke-linecap:round;stroke-linejoin:round;stroke-miterlimit:10;" d="
					M540.665,380.468l0.456,13.667c0,0-5.011,8.656-6.378,10.251c-1.367,1.594-9.795,7.745-11.162,9.112
					c-1.367,1.367-0.456,2.733,0.683,3.417c1.139,0.683,32.118,0,32.118,0s2.05-1.139,1.822-4.556
					c-0.228-3.417-2.506-27.79-2.506-27.79L540.665,380.468z"/>
				<path style="fill:#FFFFFF;stroke:#263238;stroke-linecap:round;stroke-linejoin:round;stroke-miterlimit:10;" d="
					M547.043,394.363c-3.189-1.367-5.923-0.228-5.923-0.228s-5.011,8.656-6.378,10.251c-1.367,1.594-9.795,7.745-11.162,9.111
					c-1.367,1.367-0.456,2.734,0.683,3.417c1.139,0.683,32.118,0,32.118,0s2.05-1.139,1.822-4.556
					c-0.101-1.513-0.603-7.131-1.132-12.925l-5.702-0.97C551.371,398.464,550.232,395.73,547.043,394.363z"/>
			</g>
			<g>
				<path style="fill:#FFFFFF;stroke:#263238;stroke-linecap:round;stroke-linejoin:round;stroke-miterlimit:10;" d="
					M642.743,380.468l-0.456,13.667c0,0,5.011,8.656,6.378,10.251c1.367,1.594,9.795,7.745,11.162,9.112
					c1.367,1.367,0.456,2.733-0.683,3.417c-1.139,0.683-32.118,0-32.118,0s-2.05-1.139-1.822-4.556
					c0.228-3.417,2.506-27.79,2.506-27.79L642.743,380.468z"/>
				<path style="fill:#FFFFFF;stroke:#263238;stroke-linecap:round;stroke-linejoin:round;stroke-miterlimit:10;" d="
					M636.365,394.363c3.189-1.367,5.923-0.228,5.923-0.228s5.011,8.656,6.378,10.251c1.367,1.594,9.795,7.745,11.162,9.111
					c1.367,1.367,0.456,2.734-0.683,3.417c-1.139,0.683-32.118,0-32.118,0s-2.05-1.139-1.822-4.556
					c0.101-1.513,0.603-7.131,1.132-12.925l5.702-0.97C632.037,398.464,633.176,395.73,636.365,394.363z"/>
			</g>
			<g>
				<path style="fill:#999999;stroke:#263238;stroke-linecap:round;stroke-linejoin:round;stroke-miterlimit:10;" d="
					M543.626,296.87c0,0-10.478,1.595-12.756,12.984c-2.278,11.389,4.556,73.576,4.556,73.576l22.779,3.872l1.595-49.079h61.731
					l3.645,49.535c0,0,22.323-6.378,22.096-5.695c-0.228,0.683-0.683-36.674-0.683-36.674s2.733-32.802,1.367-36.446
					c-1.367-3.645-2.961-7.289-4.784-8.428c-1.822-1.139-17.433-0.668-19.362-0.228c-1.929,0.44-22.551,5.467-29.84,4.556
					c-7.289-0.911-23.609,0.836-27.026-0.531S549.093,292.769,543.626,296.87z"/>
				<path style="fill:none;stroke:#263238;stroke-linecap:round;stroke-linejoin:round;stroke-miterlimit:10;" d="M559.799,338.223
					v-11.968c0,0-3.645-12.756-7.973-16.629"/>
				<path style="fill:none;stroke:#263238;stroke-linecap:round;stroke-linejoin:round;stroke-miterlimit:10;" d="M555.243,309.398
					c0,0,2.734,3.417,3.645,7.289"/>
				<polyline style="fill:none;stroke:#263238;stroke-linecap:round;stroke-linejoin:round;stroke-miterlimit:10;" points="
					621.53,338.223 621.53,326.254 620.846,312.815 				"/>
				
					<line style="fill:none;stroke:#263238;stroke-linecap:round;stroke-linejoin:round;stroke-miterlimit:10;" x1="617.43" y1="312.359" x2="619.024" y2="319.193"/>
				<path style="fill:none;stroke:#263238;stroke-linecap:round;stroke-linejoin:round;stroke-miterlimit:10;" d="M585.365,314.651
					c0,0,5.467,6.606,6.378,9.339"/>
				
					<line style="fill:none;stroke:#263238;stroke-linecap:round;stroke-linejoin:round;stroke-miterlimit:10;" x1="598.295" y1="318.138" x2="593.967" y2="321.099"/>
				
					<line style="fill:none;stroke:#263238;stroke-linecap:round;stroke-linejoin:round;stroke-miterlimit:10;" x1="644.081" y1="319.876" x2="645.675" y2="342.883"/>
				
					<line style="fill:none;stroke:#263238;stroke-linecap:round;stroke-linejoin:round;stroke-miterlimit:10;" x1="534.97" y1="328.305" x2="533.831" y2="359.512"/>
			</g>
			<path style="fill:#92E3A9;stroke:#263238;stroke-linecap:round;stroke-linejoin:round;stroke-miterlimit:10;" d="
				M584.858,225.875c0,0-17.565,4.053-21.078,5.945c-3.513,1.892-5.404,6.485-6.485,8.647c-1.081,2.162-13.511,46.749-13.241,48.64
				c0.27,1.892,12.43,5.134,12.43,5.134l9.458-23.239l1.081,23.239l-0.082,10.07c0,0,18.105,9.998,25.131,11.079
				s10.487-1.689,15.351-3.851c4.864-2.162,14.456-10.813,14.456-10.813l23.51-5.675c0,0-4.594-44.046-5.945-48.64
				c-1.351-4.594-6.485-14.862-11.349-15.943c-5.341-1.187-16.214-4.594-16.214-4.594H584.858z"/>
			<path style="fill:#D1D1D1;stroke:#263238;stroke-linecap:round;stroke-linejoin:round;stroke-miterlimit:10;" d="
				M549.466,267.449c-2.935,10.74-5.537,20.781-5.411,21.658c0.27,1.892,12.43,5.134,12.43,5.134l8.191-20.127L549.466,267.449z"/>
			<path style="fill:#D1D1D1;stroke:#263238;stroke-linecap:round;stroke-linejoin:round;stroke-miterlimit:10;" d="M642.724,270.72
				l-15.134,3.571l0.18,25.013l17.618-4.253C645.388,295.052,644.122,282.916,642.724,270.72z"/>
			<path style="fill:#92E3A9;stroke:#263238;stroke-linecap:round;stroke-linejoin:round;stroke-miterlimit:10;" d="
				M587.831,221.551l-6.485,4.594l3.783,27.022l16.754-11.62l16.484,11.349c0,0-1.891-21.348-2.972-25.131
				c-1.081-3.783-4.864-4.864-4.864-4.864L587.831,221.551z"/>
			<path style="fill:#D1D1D1;stroke:#263238;stroke-linecap:round;stroke-linejoin:round;stroke-miterlimit:10;" d="
				M589.951,232.195c0,0,3.555,8.002,5.176,10.704c1.621,2.702,7.026,11.349,7.026,11.349l5.675-17.835l2.162-4.053L589.951,232.195
				z"/>
			<g>
				<path style="fill:#D1D1D1;stroke:#263238;stroke-linecap:round;stroke-linejoin:round;stroke-miterlimit:10;" d="M593.602,187.4
					c0,0-5.599,1.948-7.791,8.277c-2.191,6.33-0.73,15.581-0.73,15.581s-4.139-1.704-4.626,1.704
					c-0.487,3.408,1.217,6.33,2.435,7.303c1.217,0.974,3.165,0.974,3.165,0.974s3.165,9.495,3.895,10.955
					c0.73,1.461,6.33,6.33,8.277,6.817c1.948,0.487,7.79-1.217,7.79-1.217s4.869-6.573,5.112-8.034
					c0.243-1.461,3.652-9.738,4.139-13.146s2.191-16.555,0.487-19.963c-1.704-3.408-4.869-8.521-11.199-9.981
					C598.228,185.209,593.602,187.4,593.602,187.4z"/>
				<path style="fill:#263238;stroke:#263238;stroke-linecap:round;stroke-linejoin:round;stroke-miterlimit:10;" d="
					M604.557,186.67c-6.33-1.461-10.955,0.73-10.955,0.73s-5.599,1.948-7.79,8.277c-2.191,6.33-0.73,15.581-0.73,15.581
					s2.191,1.217,2.921,1.217c0.73,0,4.139-0.974,4.382-3.165c0.243-2.191,0.974-8.764,0.974-8.764s5.599,1.704,9.495,2.191
					c3.895,0.487,10.468-1.948,10.468-1.948l2.191,6.817l0.546,2.368c0.484-5.039,0.782-11.153-0.303-13.323
					C614.052,193.243,610.887,188.13,604.557,186.67z"/>
				<path style="fill:none;stroke:#263238;stroke-linecap:round;stroke-linejoin:round;stroke-miterlimit:10;" d="M616.059,209.974
					c0,0,2.862-0.177,2.375,2.988c-0.487,3.165-3.408,5.843-3.408,5.843L616.059,209.974z"/>
				<polyline style="fill:none;stroke:#263238;stroke-linecap:round;stroke-linejoin:round;stroke-miterlimit:10;" points="
					605.531,218.805 605.044,228.056 600.906,227.813 				"/>
				<path style="fill:none;stroke:#263238;stroke-linecap:round;stroke-linejoin:round;stroke-miterlimit:10;" d="M598.471,230.247
					c0,0,2.678,1.461,5.112,0.73"/>
				<path style="fill:none;stroke:#263238;stroke-linecap:round;stroke-linejoin:round;stroke-miterlimit:10;" d="M593.846,219.292
					c0,0,2.435,2.434,5.843,0.974"/>
				<path style="fill:none;stroke:#263238;stroke-linecap:round;stroke-linejoin:round;stroke-miterlimit:10;" d="M607.722,219.779
					c0,0,2.434,1.948,4.382-0.73"/>
				<path style="fill:none;stroke:#263238;stroke-linecap:round;stroke-linejoin:round;stroke-miterlimit:10;" d="M594.14,215.889
					c0,0,3.771,1.257,6.425,0.698"/>
				<path style="fill:none;stroke:#263238;stroke-linecap:round;stroke-linejoin:round;stroke-miterlimit:10;" d="M607.408,216.447
					c0,0,3.771,0,5.866-0.978"/>
			</g>
			<g>
				<polygon style="fill:#263238;stroke:#263238;stroke-linecap:round;stroke-linejoin:round;stroke-miterlimit:10;" points="
					576.608,265.3 572.854,296.312 603.866,303.82 607.784,274.44 				"/>
				<polygon style="fill:#263238;stroke:#263238;stroke-linecap:round;stroke-linejoin:round;stroke-miterlimit:10;" points="
					607.784,274.44 636.51,263.994 630.634,295.006 603.866,303.82 				"/>
				<path style="fill:#FFFFFF;stroke:#263238;stroke-linecap:round;stroke-linejoin:round;stroke-miterlimit:10;" d="
					M607.784,274.44c0,0,0.653-3.101,4.244-4.244c3.591-1.143,22.198-7.345,22.198-7.345l0.979,1.306L607.784,274.44z"/>
				<path style="fill:#FFFFFF;stroke:#263238;stroke-linecap:round;stroke-linejoin:round;stroke-miterlimit:10;" d="
					M607.784,274.44c0,0-2.122-3.591-3.101-4.244c-0.979-0.653-25.463-6.529-25.463-6.529l-1.685,1.844L607.784,274.44z"/>
			</g>
			<g>
				<path style="fill:#D1D1D1;stroke:#263238;stroke-linecap:round;stroke-linejoin:round;stroke-miterlimit:10;" d="
					M644.826,289.605c0,0,1.538,5.206,1.301,7.454c-0.237,2.248-3.431,3.431-6.152,4.851s-8.4,3.431-11.713,3.549
					c-3.313,0.118-11.122-0.71-12.305-0.71c-1.183,0-11.477-2.366-13.606-3.076s-4.614-1.656-5.679-2.485
					c-1.065-0.828-2.721-1.183-2.721-1.183s-0.947-0.828-1.183-1.538c-0.237-0.71,4.023,0.118,4.023,0.118s-4.378-3.194-5.206-3.668
					c-0.828-0.473-0.946-1.538-0.828-2.011c0.118-0.473,5.206,2.366,5.561,2.366c0.355,0,3.668,0.237,3.668,0.237
					s-2.696-2.781-4.588-3.862c-1.892-1.081-1.081-2.432,0-2.432c1.081,0,7.836,4.053,7.836,4.053l9.188,1.081l-0.27-3.513
					c0,0-1.351-1.351-1.892-2.972c-0.54-1.621,1.351-2.973,2.973-1.351c1.621,1.621,4.323,4.053,5.134,4.594
					c0.811,0.541,1.621,6.756,1.621,6.756s8.156-1.407,8.985-2.59c0.828-1.183,8.519-5.442,10.293-5.797
					c1.775-0.355,3.195-0.118,3.195-0.118"/>
				
					<line style="fill:none;stroke:#263238;stroke-linecap:round;stroke-linejoin:round;stroke-miterlimit:10;" x1="599.985" y1="293.509" x2="604.008" y2="295.166"/>
				<path style="fill:none;stroke:#263238;stroke-linecap:round;stroke-linejoin:round;stroke-miterlimit:10;" d="M596.79,296.586
					c0,0,4.378,1.538,6.152,1.656"/>
			</g>
			<g>
				<path style="fill:#D1D1D1;stroke:#263238;stroke-linecap:round;stroke-linejoin:round;stroke-miterlimit:10;" d="
					M544.565,285.176c-1.469,1.306-2.939,5.388-2.939,7.674s2.122,4.408,4.408,5.551c2.286,1.143,7.184,1.959,12.409,1.469
					c5.225-0.49,8.04-2.116,8.04-2.116s6.371-1.443,8.287-1.476c1.916-0.033,8.327-2.449,9.143-3.102
					c0.816-0.653,0.326-2.286,0.326-2.286s1.796-1.143,2.286-1.959c0.49-0.816-1.633-2.122-1.633-2.122s1.469-0.98,1.796-1.469
					c0.327-0.49-1.469-1.306-2.286-0.98c-0.816,0.327-6.694,1.306-6.694,1.306s4.245-2.449,5.061-2.939
					c0.816-0.49,0.326-0.98-0.327-1.633c-0.653-0.653-5.551,1.959-6.204,2.122c-0.653,0.163-6.041,1.306-6.041,1.306
					s0.816-2.286,1.306-2.612c0.49-0.327,2.776-1.633,2.776-1.633s0.653-3.265,0.653-4.408c0-1.143-3.265,2.449-3.265,2.449
					s-4.898,3.429-5.388,3.755c-0.49,0.327-3.265,6.857-3.265,6.857s-1.306,0.49-3.755-1.306c-2.449-1.796-6.204-3.102-8.327-3.102"
					/>
				<polyline style="fill:none;stroke:#263238;stroke-linecap:round;stroke-linejoin:round;stroke-miterlimit:10;" points="
					584.893,286.809 579.505,288.278 575.586,288.768 				"/>
				<polyline style="fill:none;stroke:#263238;stroke-linecap:round;stroke-linejoin:round;stroke-miterlimit:10;" points="
					584.24,290.891 578.362,292.033 575.586,292.197 				"/>
			</g>
			
				<line style="fill:none;stroke:#263238;stroke-linecap:round;stroke-linejoin:round;stroke-miterlimit:10;" x1="577.709" y1="285.666" x2="574.607" y2="286.156"/>
		</g>
	</g>
</g>
<g id="Character_3">
	<g>
		<path style="fill:#999999;stroke:#263238;stroke-linecap:round;stroke-linejoin:round;stroke-miterlimit:10;" d="M442.587,253.059
			c0,0,1.57,24.419,4.581,47.12c3.011,22.7,5.791,44.011,8.339,50.265c2.548,6.254,4.864,29.881,4.864,32.429
			c0,2.548-0.232,10.655-0.232,10.655l-1.39,2.316l0.463,4.169c0,0,2.78,2.316,6.486,3.011c3.706,0.695,8.339,0.926,8.339,0.926
			s10.192,4.169,11.582,5.096c1.39,0.927,5.559,0.695,5.559,0.695s1.39-2.78,1.158-5.328c-0.232-2.548-1.853-5.559-1.853-7.412
			c0-1.853,7.412-37.525,6.486-44.474c-0.927-6.949-6.023-24.785-6.254-27.102c-0.232-2.316,9.265-50.497,9.265-50.497
			l-4.633-27.102l-50.466,1.595L442.587,253.059z"/>
		<polygon style="fill:#92E3A9;stroke:#263238;stroke-linecap:round;stroke-linejoin:round;stroke-miterlimit:10;" points="
			447.866,164.072 435.978,213.966 421.166,210.652 419.411,227.219 440.85,234.625 448.061,180.638 		"/>
		<polygon style="fill:#FFFFFF;stroke:#263238;stroke-linecap:round;stroke-linejoin:round;stroke-miterlimit:10;" points="
			421.166,210.652 414.539,213.576 419.411,227.219 		"/>
		<polygon style="fill:#FFFFFF;stroke:#263238;stroke-linecap:round;stroke-linejoin:round;stroke-miterlimit:10;" points="
			399.605,178.068 399.572,173.52 393.17,166.561 392.335,168.51 		"/>
		<polygon style="fill:#FFFFFF;stroke:#263238;stroke-linecap:round;stroke-linejoin:round;stroke-miterlimit:10;" points="
			399.572,173.52 415.716,164.613 413.768,169.066 399.605,178.068 		"/>
		<polygon style="fill:#263238;stroke:#263238;stroke-linecap:round;stroke-linejoin:round;stroke-miterlimit:10;" points="
			399.605,178.068 417.967,164.1 430.052,192.193 414.985,201.923 		"/>
		<polygon style="fill:#263238;stroke:#263238;stroke-linecap:round;stroke-linejoin:round;stroke-miterlimit:10;" points="
			399.605,178.068 390.502,166.454 401.959,186.857 414.985,201.923 		"/>
		<path style="fill:#FFFFFF;stroke:#263238;stroke-linecap:round;stroke-linejoin:round;stroke-miterlimit:10;" d="M419.85,219.344
			c0,0-13.183-11.614-13.497-12.242c-0.314-0.628-1.883-8.318-1.883-8.318l-3.924-12.555c0,0,1.569,0.942,2.354,3.296
			c0.785,2.354,3.767,11.614,3.767,11.614s0.628-10.201,0.942-11.457c0.314-1.256,1.726-0.628,1.883,0.785
			c0.157,1.412,0.314,11.614,0.314,11.614l4.394-8.318c0,0,1.413-0.314,0.942,1.099c-0.471,1.412-2.354,8.946-2.354,8.946
			s4.865,3.139,5.493,4.551c0.628,1.412,0,3.296,0,3.767c0,0.471,2.511,1.569,2.511,1.569L419.85,219.344z"/>
		<polygon style="fill:#FFFFFF;stroke:#263238;stroke-linecap:round;stroke-linejoin:round;stroke-miterlimit:10;" points="
			421.166,210.652 419.066,209.456 417.339,218.245 419.85,219.344 		"/>
		<path style="fill:#FFFFFF;stroke:#263238;stroke-linecap:round;stroke-linejoin:round;stroke-miterlimit:10;" d="M457.127,156.254
			c0,0-3.444,1.722-4.783,5.165c-1.339,3.444-7.652,55.863-7.652,55.863l-2.104,35.776l13.583,0.191l10.905-80.16l1.531-19.705
			C468.606,153.385,460.188,151.854,457.127,156.254z"/>
		<path style="fill:#92E3A9;stroke:#263238;stroke-linecap:round;stroke-linejoin:round;stroke-miterlimit:10;" d="M457.127,156.254
			c0,0-1.913,1.148-4.209,18.175c-2.296,17.027-8.227,70.021-8.035,74.995c0.191,4.974-0.191,27.358-0.191,27.358l-7.079-1.148
			c0,0-1.339-20.088,0.574-32.141c1.913-12.053,4.974-34.819,5.739-42.854c0.765-8.035,3.061-37.115,4.018-39.219
			c0.957-2.104,8.609-7.653,8.609-7.653L457.127,156.254z"/>
		<polygon style="fill:#FFFFFF;stroke:#263238;stroke-linecap:round;stroke-linejoin:round;stroke-miterlimit:10;" points="
			471.285,131.575 476.641,145.732 463.632,156.063 459.04,166.203 454.64,151.854 466.119,142.862 465.354,133.488 		"/>
		<g>
			<path style="fill:#FFFFFF;stroke:#263238;stroke-linecap:round;stroke-linejoin:round;stroke-miterlimit:10;" d="
				M438.379,112.061c0,0-0.383,7.461,0.765,9.757c1.148,2.296,3.061,5.357,3.061,6.313c0,0.957-2.487,7.844-1.913,8.8
				c0.574,0.957,3.635,1.148,3.635,1.148s3.061,6.313,3.635,8.418c0.574,2.105,0.957,6.696,3.252,8.227
				c2.296,1.531,6.122-1.339,11.67-4.783c5.548-3.444,5.931-7.653,5.931-8.8s-0.574-4.4-0.574-4.4s4.018-2.104,5.166-5.165
				c1.148-3.061,0.957-4.974,0.957-4.974s3.252-1.531,4.209-6.505c0.956-4.974-3.252-17.41-6.887-19.897
				c-3.635-2.487-6.696-6.313-15.688-5.166c-8.992,1.148-17.601,5.166-18.94,9.757C435.318,109.382,438.379,112.061,438.379,112.061
				z"/>
			<path style="fill:#263238;stroke:#263238;stroke-linecap:round;stroke-linejoin:round;stroke-miterlimit:10;" d="
				M436.657,104.791c1.339-4.591,9.948-8.609,18.94-9.757c8.992-1.148,12.053,2.678,15.688,5.166
				c3.635,2.487,7.844,14.923,6.887,19.897c-0.957,4.974-4.209,6.505-4.209,6.505c-1.148-4.974-5.548-5.739-6.887-4.591
				c-1.339,1.148,0.765,14.731,0.765,14.731s0.574,3.252,0.574,4.4s-0.383,5.357-5.931,8.8c-5.548,3.444-9.374,6.313-11.67,4.783
				s-2.678-6.122-3.252-8.227c-0.574-2.104-3.635-8.418-3.635-8.418s-0.09-0.006-0.233-0.019c1.128-0.57,2.785-1.1,5.207-1.32
				c6.313-0.574,7.27,3.826,8.8,3.635s4.209-2.296,4.783-4.4c0.574-2.104,0.574-12.818,0.765-13.966
				c0.191-1.148-0.383-1.531-1.339-1.913s-6.505-2.678-8.227-3.826c-1.722-1.148-1.339-8.418-1.339-8.418l-13.966,4.209
				C438.379,112.061,435.318,109.382,436.657,104.791z"/>
			<path style="fill:none;stroke:#263238;stroke-linecap:round;stroke-linejoin:round;stroke-miterlimit:10;" d="M444.211,127.99
				c1.037,2.43,3.335,3.777,5.132,3.01c1.798-0.767,2.415-3.359,1.378-5.788c-1.037-2.43-3.335-3.777-5.133-3.01
				C443.791,122.969,443.174,125.56,444.211,127.99z"/>
			<path style="fill:none;stroke:#263238;stroke-linecap:round;stroke-linejoin:round;stroke-miterlimit:10;" d="M439.158,123.206
				c-1.248,1.068-1.576,3.272-0.687,5.358c0.643,1.507,1.771,2.597,2.963,3.025"/>
			
				<line style="fill:none;stroke:#263238;stroke-linecap:round;stroke-linejoin:round;stroke-miterlimit:10;" x1="443.161" y1="126.027" x2="440.292" y2="126.218"/>
			
				<line style="fill:none;stroke:#263238;stroke-linecap:round;stroke-linejoin:round;stroke-miterlimit:10;" x1="450.721" y1="125.212" x2="466.502" y2="123.54"/>
		</g>
		<polygon style="fill:#92E3A9;stroke:#263238;stroke-linecap:round;stroke-linejoin:round;stroke-miterlimit:10;" points="
			478.746,142.097 459.806,155.298 463.441,165.055 482.381,152.811 		"/>
		<path style="fill:#92E3A9;stroke:#263238;stroke-linecap:round;stroke-linejoin:round;stroke-miterlimit:10;" d="M463.632,161.994
			c0,0-2.87,17.792-4.783,34.819c-1.913,17.027-4.974,49.359-5.357,50.124c-0.383,0.765-0.765,9.183,0.191,13.009
			c0.957,3.826,7.653,15.879,9.757,16.453c2.104,0.574,12.244,0.957,12.244,0.957l33.48,1.722l-6.313-37.306
			c0,0,0.574-45.341,1.148-50.698c0.574-5.357,1.722-24.297-0.765-25.827c-2.487-1.531-20.853-12.435-20.853-12.435L463.632,161.994
			z"/>
		<g>
			<path style="fill:#92E3A9;stroke:#263238;stroke-linecap:round;stroke-linejoin:round;stroke-miterlimit:10;" d="
				M503.234,165.246c0,0,6.313,25.445,5.739,28.888c-0.574,3.444-2.87,43.237-3.252,45.533
				c-0.383,2.296-14.731,34.245-14.731,34.245l-14.922-7.079c0,0,7.653-30.419,7.653-30.993c0-0.574,2.104-9.374,2.296-9.948
				c0.191-0.574-7.079-34.819-7.079-34.819s-1.339-7.653,1.148-10.905s9.757-10.331,9.757-10.331"/>
			<path style="fill:none;stroke:#263238;stroke-linecap:round;stroke-linejoin:round;stroke-miterlimit:10;" d="M492.002,226.113
				c-1.525,1.069-2.732,1.936-3.117,2.266"/>
			<path style="fill:none;stroke:#263238;stroke-linecap:round;stroke-linejoin:round;stroke-miterlimit:10;" d="M501.512,219.579
				c0,0-2.739,1.857-5.679,3.879"/>
			<polygon style="fill:#FFFFFF;stroke:#263238;stroke-linecap:round;stroke-linejoin:round;stroke-miterlimit:10;" points="
				487.929,272.573 486.016,276.782 475.302,272.19 477.598,267.216 			"/>
			<polygon style="fill:#FFFFFF;stroke:#263238;stroke-linecap:round;stroke-linejoin:round;stroke-miterlimit:10;" points="
				475.302,272.19 472.624,277.164 483.337,285.2 484.676,276.208 			"/>
		</g>
		<g>
			<path style="fill:#FFFFFF;stroke:#263238;stroke-linecap:round;stroke-linejoin:round;stroke-miterlimit:10;" d="
				M459.214,400.015c0,0-6.486,6.949-7.876,7.876c-1.39,0.927-11.35,8.339-11.35,8.339s-0.695,1.39,0.463,2.085
				c1.158,0.695,17.373,1.158,17.373,1.158s2.78,1.39,6.717,1.39c3.938,0,18.531-1.158,20.616-1.621
				c2.085-0.463,5.791-0.927,6.717-3.243c0.927-2.316-0.695-6.254-0.695-6.254s-1.621-1.622-4.169-3.243
				c-2.548-1.621-4.633-3.011-7.876-4.633c-3.243-1.622-8.107,0.926-8.107,0.926L459.214,400.015z"/>
			<path style="fill:#FFFFFF;stroke:#263238;stroke-linecap:round;stroke-linejoin:round;stroke-miterlimit:10;" d="
				M469.406,405.574c0,0-1.853,3.475-6.717,6.717c-4.864,3.243-4.864,7.181-4.864,7.181"/>
		</g>
		<path style="fill:none;stroke:#263238;stroke-linecap:round;stroke-linejoin:round;stroke-miterlimit:10;" d="M472.506,387.855
			c-0.089,3.823-0.089,4.979-0.089,4.979s-0.463,1.621-0.695,3.243c-0.232,1.621,0.232,2.78,0.232,2.78"/>
		<path style="fill:none;stroke:#263238;stroke-linecap:round;stroke-linejoin:round;stroke-miterlimit:10;" d="M455.739,287.902
			l5.328,4.633c0,0,5.559,37.757,7.181,47.486c1.621,9.729,5.096,19.689,4.633,34.514c-0.107,3.438-0.19,6.265-0.253,8.58"/>
		<path style="fill:none;stroke:#263238;stroke-linecap:round;stroke-linejoin:round;stroke-miterlimit:10;" d="M487.037,350.904
			c0.739,3.635,1.292,6.472,1.363,7.185"/>
		<path style="fill:none;stroke:#263238;stroke-linecap:round;stroke-linejoin:round;stroke-miterlimit:10;" d="M490.948,282.574
			c0,0-5.328,30.808-6.486,34.514c-1.158,3.706-2.085,10.655-1.853,12.277c0.126,0.879,1.747,8.558,3.244,15.779"/>
		<path style="fill:none;stroke:#263238;stroke-linecap:round;stroke-linejoin:round;stroke-miterlimit:10;" d="M489.558,361.331
			c0,0-0.463,3.474-1.39,9.034c-0.926,5.559-3.706,23.627-3.706,23.627"/>
	</g>
</g>
<g id="Character_2">
	<g>
		<path style="fill:#263238;stroke:#263238;stroke-linecap:round;stroke-linejoin:round;stroke-miterlimit:10;" d="M296.801,144.92
			c0,0-13.645,6.434-13.326,12.068c0.318,5.634,0.733,8.092,0.733,8.092s-15.792,4.657-15.954,10.032
			c-0.163,5.375,2.806,12.312,2.273,13.763c-0.533,1.451-7.907,2.695-4.931,9.388c2.976,6.693,10.135,12.534,22.114,12.652
			c11.979,0.118,18.886-9.943,19.16-18.982c0.274-9.04,5.316-38.231,5.316-38.231L296.801,144.92z"/>
		<g>
			<g>
				<path style="fill:#92E3A9;stroke:#263238;stroke-linecap:round;stroke-linejoin:round;stroke-miterlimit:10;" d="
					M343.901,259.844c0,0-0.244,24.302-5.417,42.618c-5.173,18.316-8.467,36.689-8.467,36.689s-0.663,10.585-2.832,20.097
					c-2.17,9.513-1.942,24.571-2.066,28.673c-0.124,4.101-0.041,7.012-0.041,7.012s-7.374,0.632-8.736,0.419
					c-1.362-0.212-2.708-0.937-2.708-0.937s-3.475-32.09-3.236-39.951c0.238-7.861,0.155-16.415,0.725-18.28
					c0.57-1.864,1.838-26.798,0.906-41.194c-0.932-14.396-8.549-17.021-13.997-23.515c-5.448-6.494-8.316-13.422-8.316-13.422
					S323.334,261.936,343.901,259.844z"/>
				<path style="fill:#FFFFFF;stroke:#263238;stroke-linecap:round;stroke-linejoin:round;stroke-miterlimit:10;" d="
					M321.104,272.949c0,0,5.57-3.219,8.797-6.509"/>
			</g>
			<path style="fill:#92E3A9;stroke:#263238;stroke-linecap:round;stroke-linejoin:round;stroke-miterlimit:10;" d="
				M308.781,266.668c0,0,8.783,3.687,11.341,9.58c2.558,5.893,0.849,28.419-0.285,37.621c-1.134,9.202-2.91,17.016-4.79,22.604
				c-1.88,5.587-11.299,51.141-11.299,51.141l-1.248,7.317c0,0-4.319,1.409-5.852,1.191c-1.533-0.217-4.226-1.668-4.226-1.668
				s-3.48-43.208-1.885-50.686c1.595-7.478,10.139-18.508,10.139-18.508s0.388-1.528-0.052-3.935
				c-0.44-2.408-12.402-25.348-15.659-42.038c-3.257-16.69-1.642-21.859-1.642-21.859l11.625,2.834l9.539,1.315"/>
			<g>
				<path style="fill:#FFFFFF;stroke:#263238;stroke-linecap:round;stroke-linejoin:round;stroke-miterlimit:10;" d="
					M292.423,394.455c0,0-1.935,11.615-3.843,16.686c-1.908,5.071,0.923,9.611,5.218,10.416c4.295,0.805,9.313,0.012,9.983-4.287
					c0.67-4.299-0.592-16.08-0.535-17.968c0.057-1.888-0.746-4.371-0.746-4.371S296.482,397.347,292.423,394.455z"/>
				<path style="fill:#FFFFFF;stroke:#263238;stroke-linecap:round;stroke-linejoin:round;stroke-miterlimit:10;" d="
					M303.781,417.271c0.242-1.554,0.23-4.087,0.121-6.775c-0.625,0.898-2.633,3.163-7.174,3.457
					c-4.383,0.284-6.81-2.741-7.693-4.141c-0.151,0.477-0.303,0.926-0.455,1.33c-1.908,5.071,0.924,9.611,5.219,10.416
					C298.093,422.362,303.111,421.569,303.781,417.271z"/>
			</g>
			<g>
				<path style="fill:#FFFFFF;stroke:#263238;stroke-linecap:round;stroke-linejoin:round;stroke-miterlimit:10;" d="
					M325.078,394.931c0,0,3.786,5.282,10.12,10.064c6.334,4.781,9.82,5.562,8.957,7.29c-0.862,1.729-8.561,1.9-14.086,1.598
					s-10.735-2.08-13.015-2.554c-2.28-0.474-5.415,0.511-6.146-2.076c-0.732-2.587,2.725-14.839,2.725-14.839
					S322.072,395.072,325.078,394.931z"/>
				<path style="fill:#FFFFFF;stroke:#263238;stroke-linecap:round;stroke-linejoin:round;stroke-miterlimit:10;" d="
					M344.155,412.285c0.821-1.646-2.305-2.44-8.07-6.636c-1.391,0.505-4.255,1.403-6.887,1.323
					c-3.641-0.11-16.395-6.841-16.395-6.841l-0.579-0.252c-0.858,3.62-1.719,7.953-1.318,9.373c0.731,2.587,3.866,1.602,6.146,2.076
					c2.28,0.474,7.49,2.252,13.015,2.554C335.594,414.185,343.293,414.014,344.155,412.285z"/>
			</g>
		</g>
		<path style="fill:#FFFFFF;stroke:#263238;stroke-linecap:round;stroke-linejoin:round;stroke-miterlimit:10;" d="M339.72,174.692
			c0,0,2.247,0.571,3.138,4.372c0.891,3.8,0.96,43.045,0.96,43.045l-7.502,2.666l-1.449-4.608l5.65-38.533
			C340.516,181.634,339.701,175.32,339.72,174.692z"/>
		<path style="fill:#D1D1D1;stroke:#263238;stroke-linecap:round;stroke-linejoin:round;stroke-miterlimit:10;" d="M343.575,195.557
			c-0.142-7.958-0.365-14.993-0.717-16.494c-0.891-3.8-3.138-4.372-3.138-4.372c-0.019,0.628,0.796,6.942,0.796,6.942l-2.135,14.562
			L343.575,195.557z"/>
		<path style="fill:#FFFFFF;stroke:#263238;stroke-linecap:round;stroke-linejoin:round;stroke-miterlimit:10;" d="M339.269,191.648
			l6.386-0.655c0,0-1.033-9.89-1.96-12.368c-0.927-2.477-3.975-3.934-3.975-3.934S340.252,187.802,339.269,191.648z"/>
		<polygon style="fill:#999999;stroke:#263238;stroke-linecap:round;stroke-linejoin:round;stroke-miterlimit:10;" points="
			278.178,186.537 268.399,246.543 271.804,245.969 279.881,186.25 		"/>
		<path style="fill:#D1D1D1;stroke:#263238;stroke-linecap:round;stroke-linejoin:round;stroke-miterlimit:10;" d="M305.599,153.414
			c0,0-1.906,11.918-3.737,14.953c-1.83,3.035-12.298,4.263-12.298,4.263s-7.38,1.322-6.216,7.538
			c1.164,6.216,8.509,44.297,8.088,45.443c-0.421,1.146-8.111,31.818-8.111,31.818s20.116,5.438,39.069,4.661
			c18.953-0.778,21.508-2.246,21.508-2.246s-1.789-17.438-4.462-24.859c-2.672-7.421-4.591-14.239-4.573-14.818
			c0.018-0.579,6.579-38.625,6.286-41.724c-0.292-3.099-1.591-4.877-5.438-5.38c-3.848-0.503-8.842-1.427-11.678-3.444
			c-2.836-2.017-4.333-9.982-4.333-9.982S311.943,160.753,305.599,153.414z"/>
		<path style="fill:#FFFFFF;stroke:#263238;stroke-linecap:round;stroke-linejoin:round;stroke-miterlimit:10;" d="M326.35,170.86
			c-0.859-0.361-1.649-0.769-2.313-1.241c-2.836-2.018-4.333-9.982-4.333-9.982s-7.76,1.117-14.105-6.222
			c0,0-1.906,11.918-3.737,14.953c-0.724,1.201-2.802,2.114-5.046,2.785c2.763,3.877,10.821,14.352,17.274,14.39
			C319.8,185.576,324.29,176.13,326.35,170.86z"/>
		<g>
			<path style="fill:#FFFFFF;stroke:#263238;stroke-linecap:round;stroke-linejoin:round;stroke-miterlimit:10;" d="
				M330.422,137.362c0,0-0.965,6.345-1.684,10.959c-0.719,4.614-6.386,13.134-10.076,13.795c-3.69,0.661-6.941-0.404-9.766-2.807
				c-2.825-2.403-7.281-8.333-7.281-8.333s-4.444,0.059-6.824-4.263c-2.38-4.322-0.187-6.573,1.374-7.105
				c1.561-0.532,4.848-0.626,4.848-0.626s2.567-8.228,3.737-8.579c1.17-0.351,6.409-1.158,9.187-3.585
				c2.778-2.427,6.076-9.28,8.193-9.023c2.117,0.257,8.789,9.538,8.941,10.894C331.223,130.046,330.422,137.362,330.422,137.362z"/>
			<g>
				<path style="fill:#263238;" d="M314.934,141.195c-0.027,0.895-0.448,1.609-0.941,1.594c-0.492-0.015-0.87-0.753-0.843-1.648
					c0.027-0.895,0.448-1.609,0.941-1.594C314.584,139.561,314.961,140.299,314.934,141.195z"/>
				<path style="fill:#263238;" d="M325.058,141.826c-0.027,0.896-0.448,1.609-0.941,1.594c-0.492-0.015-0.87-0.753-0.843-1.648
					c0.027-0.895,0.448-1.609,0.941-1.594C324.708,140.193,325.085,140.931,325.058,141.826z"/>
				
					<line style="fill:none;stroke:#263238;stroke-linecap:round;stroke-linejoin:round;stroke-miterlimit:10;" x1="321.901" y1="146.924" x2="318.624" y2="147.96"/>
				<path style="fill:none;stroke:#263238;stroke-linecap:round;stroke-linejoin:round;stroke-miterlimit:10;" d="M312.89,149.734
					c0,0,1.184,3.768,6.564,2.958"/>
				<path style="fill:none;stroke:#263238;stroke-linecap:round;stroke-linejoin:round;stroke-miterlimit:10;" d="M310.841,137.014
					c0,0,3.292-1.523,6.82-0.118"/>
				<path style="fill:none;stroke:#263238;stroke-linecap:round;stroke-linejoin:round;stroke-miterlimit:10;" d="M322.844,137.215
					c0,0,2.958-1.209,4.677,0.953"/>
			</g>
		</g>
		<path style="fill:#263238;stroke:#263238;stroke-linecap:round;stroke-linejoin:round;stroke-miterlimit:10;" d="M322.978,121.684
			c0,0-2.099,5.538-6.07,9.088c-3.971,3.55-11.731,4.666-11.731,4.666s-1.889,4.965-2.707,6.485c-0.819,1.52-2.55,1.275-2.55,1.275
			s-2.456-1.813-7.193-4.854c-4.737-3.041-6.725-7.544-4.708-10.38c2.018-2.836,8.45-17.514,15.608-17.877
			c7.158-0.363,20.608,1.977,23.426,4.573c2.819,2.596,8.304,12.807,8.795,15.719c0.491,2.912,0.871,3.117-1.099,4.409
			c-1.971,1.292-4.327,2.573-4.327,2.573l-0.234-5.029L322.978,121.684z"/>
		<g>
			<path style="fill:#999999;stroke:#263238;stroke-linecap:round;stroke-linejoin:round;stroke-miterlimit:10;" d="
				M265.578,261.364c0,0-4.467,18.836-3.374,21.918c1.092,3.082,20.929,13.677,26.139,15.021c5.21,1.344,10.857-0.518,12.436-2.333
				c1.579-1.815-1.595-42.396-1.595-42.396l-30.785-7.031L265.578,261.364z"/>
			<path style="fill:#999999;stroke:#263238;stroke-linecap:round;stroke-linejoin:round;stroke-miterlimit:10;" d="M291.209,254.01
				c-0.241,2.364,0.856,16.457,0.856,16.457s-3.135,25.323-1.86,28.181c4.628,0.555,9.181-1.078,10.573-2.678
				c1.579-1.815-1.595-42.396-1.595-42.396l-5.936-1.356C292.052,252.814,291.269,253.427,291.209,254.01z"/>
			<path style="fill:#999999;stroke:#263238;stroke-linecap:round;stroke-linejoin:round;stroke-miterlimit:10;" d="
				M274.055,244.343c0,0-8.482,0.42-8.887,2.61c-0.405,2.19-2.559,11.78-0.923,13.693c1.636,1.913,27.139,9.969,27.821,9.821
				c0.682-0.149-1.098-14.092-0.226-14.913c0.872-0.82,7.344-1.979,7.344-1.979L274.055,244.343z"/>
			<path style="fill:#999999;stroke:#263238;stroke-linecap:round;stroke-linejoin:round;stroke-miterlimit:10;" d="M289.564,172.63
				c0,0,2.953-0.903,4.43,6.256c1.477,7.159-0.103,76.053-0.103,76.053l3.574-0.569c0,0-1.728-71.535-1.636-74.581
				c0.092-3.046-0.821-6.462-2.651-7.533C291.348,171.183,289.564,172.63,289.564,172.63z"/>
		</g>
		<path style="fill:#D1D1D1;stroke:#263238;stroke-linecap:round;stroke-linejoin:round;stroke-miterlimit:10;" d="M291.681,172.887
			c0,0-7.877-1.398-10.608-0.515c-2.731,0.883-6.327,4.83-6.327,4.83l-1.006,14.07l19.339-0.766l-1.941-12.421"/>
		<path style="fill:#FFFFFF;stroke:#263238;stroke-linecap:round;stroke-linejoin:round;stroke-miterlimit:10;" d="M276.839,190.98
			c0,0,11.421,37.432,12.175,38.034c0.754,0.602,3.094-0.099,3.678-0.275c0.585-0.175,38.309-40.367,38.309-40.367
			s3.743-2.398,5.333-3.895c1.591-1.497,3.31-7.239,3.31-7.239s5.655-1.76,6.433-1.93c0.778-0.17,2.55-1.275,2.55-1.275
			s-5.509-3.064-8.011-3.333c-2.503-0.269-5.444,1.187-6.234,1.743c-0.789,0.556-8.164,14.432-8.164,14.432l-29.438,21.707
			l-5.637-17.941L276.839,190.98z"/>
		<g>
			<polygon style="fill:#92E3A9;stroke:#263238;stroke-linecap:round;stroke-linejoin:round;stroke-miterlimit:10;" points="
				346.077,175.308 336.182,208.617 360.965,213.038 370.649,180.302 			"/>
			<polygon style="fill:#92E3A9;stroke:#263238;stroke-linecap:round;stroke-linejoin:round;stroke-miterlimit:10;" points="
				370.649,180.302 379.24,170.905 365.643,205.26 360.965,213.038 			"/>
		</g>
		<path style="fill:#FFFFFF;stroke:#263238;stroke-linecap:round;stroke-linejoin:round;stroke-miterlimit:10;" d="M340.025,235.2
			c0,0,14.638-14.021,15.026-14.386c0.388-0.366,9.623-6.249,9.623-6.249l0.769-4.631c0,0,1.729-3.092,1.999-3.713
			c0.27-0.621,2.129-12.136,1.23-11.534c-0.899,0.602-1.154,0.72-1.306,1.596c-0.152,0.876-1.723,8.978-1.723,8.978
			s-1.267-5.798-2.1-7.333c-0.834-1.535-1.767,0.198-1.786,0.826c-0.019,0.628,1.634,8.351,1.634,8.351s-4.909-4.048-5.773-4.577
			c-0.865-0.529-1.158,0.845-0.678,1.615s3.869,5.148,3.869,5.148l-0.308,1.877c0,0-3.45-2.368-4.444-2.776
			c-0.994-0.407-1.017,0.347-0.419,1.371c0.598,1.024,1.184,2.426,1.184,2.426l-2.768,0.042c0,0-3.663,4.669-3.819,5.67
			s-0.449,2.376-0.449,2.376l-13.469,4.497L340.025,235.2z"/>
	</g>
</g>
<g id="Character_1">
	<g>
		<g>
			
				<rect x="235.04" y="359.557" style="fill:#FFFFFF;stroke:#263238;stroke-linecap:round;stroke-linejoin:round;stroke-miterlimit:10;" width="2.78" height="55.281"/>
			
				<rect x="97.609" y="359.557" style="fill:#FFFFFF;stroke:#263238;stroke-linecap:round;stroke-linejoin:round;stroke-miterlimit:10;" width="2.78" height="55.281"/>
			
				<rect x="104.712" y="265.054" style="fill:#FFFFFF;stroke:#263238;stroke-linecap:round;stroke-linejoin:round;stroke-miterlimit:10;" width="122.607" height="81.841"/>
			
				<rect x="115.212" y="337.906" style="fill:#FFFFFF;stroke:#263238;stroke-linecap:round;stroke-linejoin:round;stroke-miterlimit:10;" width="104.386" height="24.431"/>
			
				<rect x="93.855" y="300.135" style="fill:#FFFFFF;stroke:#263238;stroke-linecap:round;stroke-linejoin:round;stroke-miterlimit:10;" width="21.357" height="62.202"/>
			
				<rect x="219.55" y="300.135" style="fill:#FFFFFF;stroke:#263238;stroke-linecap:round;stroke-linejoin:round;stroke-miterlimit:10;" width="21.357" height="62.202"/>
		</g>
		<g>
			<path style="fill:#263238;stroke:#263238;stroke-linecap:round;stroke-linejoin:round;stroke-miterlimit:10;" d="
				M137.344,171.617c0,0-12.393-1.64-11.117,0.365c1.276,2.005,4.192,2.369,4.192,2.369s-10.024,1.094-14.033,8.201
				c-4.009,7.108-0.729,5.285-0.729,5.285s-5.65,8.019-5.467,12.393c0.182,4.374,3.28,2.005,3.28,2.005s-0.547,10.023,1.458,12.393
				s3.463-0.729,3.463-0.729s4.374,5.832,8.566,7.837c4.192,2.005,4.921-1.276,4.921-1.276s10.753,5.832,16.767,5.65
				c6.014-0.182,12.21-4.921,12.21-4.921s-0.182,1.822,1.093,1.822c1.276,0,10.024-6.925,10.024-6.925s-1.093,2.551,1.64,0.182
				c2.734-2.369,4.556-12.028,4.556-16.402s-2.734-10.206-2.734-10.206s3.28,2.734,3.28,0.547c0-2.187-4.556-10.935-10.206-13.851
				c-5.65-2.916-9.112-3.28-9.112-3.28s2.916-1.64,0.365-2.734c-2.551-1.094-11.482-1.094-11.482-1.094s1.64-2.551-1.822-1.822
				C142.993,168.155,137.708,169.977,137.344,171.617z"/>
			<path style="fill:#263238;stroke:#263238;stroke-linecap:round;stroke-linejoin:round;stroke-miterlimit:10;" d="
				M129.375,311.076c0,0-3.96,11.548-2.475,17.983c1.485,6.434,5.444,8.744,7.259,9.074c1.815,0.33,30.521,0,30.521,0l16.003-40.255
				L129.375,311.076z"/>
			<path style="fill:#999999;stroke:#263238;stroke-linecap:round;stroke-linejoin:round;stroke-miterlimit:10;" d="
				M138.255,218.455c0,0,1.019,5.842,0.029,9.307c-0.99,3.465-6.104,6.104-11.054,7.919c-4.949,1.815-14.353,3.135-16.003,7.589
				c-1.65,4.454-5.114,46.359-5.114,47.844s4.289,3.96,7.754,3.63c3.465-0.33,7.754-7.424,7.754-7.424s3.795,23.097,5.774,24.252
				c1.98,1.155,6.269,0,6.269,0l45.699-13.198c0,0,10.229,3.465,15.013,1.485c4.784-1.98,5.444-5.774,4.124-11.219
				c-1.32-5.444-10.394-39.43-12.373-46.194c-1.98-6.764-3.959-10.229-6.599-11.714c-2.64-1.485-13.198-0.33-17.323-0.99
				s-9.074-9.734-9.074-13.363L138.255,218.455z"/>
			<path style="fill:#FFFFFF;stroke:#263238;stroke-linecap:round;stroke-linejoin:round;stroke-miterlimit:10;" d="
				M150.492,241.454c7.559-1.643,12.496-7.648,14.962-11.5c-1.27-0.021-2.4-0.078-3.249-0.214c-4.124-0.66-9.074-9.734-9.074-13.363
				l-14.877,2.077c0,0,1.019,5.842,0.029,9.307c-0.906,3.171-5.269,5.649-9.797,7.438
				C133.171,238.236,142.411,243.211,150.492,241.454z"/>
			<g>
				<path style="fill:#FFFFFF;stroke:#263238;stroke-linecap:round;stroke-linejoin:round;stroke-miterlimit:10;" d="
					M139.895,190.206c0,0,0.365,3.28,2.005,2.551c1.64-0.729,6.743-5.832,6.743-5.832s-0.365,3.098,3.098,4.921
					c3.463,1.822,2.187-0.911,2.187-0.911l4.374,5.467l1.094,8.566c0,0,0.729,6.379-1.094,9.841
					c-1.822,3.463-6.379,7.837-10.206,8.383c-3.827,0.547-7.108-1.276-9.841-4.738c-2.734-3.463-4.009-6.196-4.009-6.196
					s-3.463-12.393-2.005-14.762C133.699,195.127,139.895,190.206,139.895,190.206z"/>
				<path style="fill:#FFFFFF;stroke:#263238;stroke-linecap:round;stroke-linejoin:round;stroke-miterlimit:10;" d="
					M132.396,204.095c0,0-4.894-3.318-4.165,1.785c0.729,5.103,5.285,3.463,5.285,3.463L132.396,204.095z"/>
				<path style="fill:#FFFFFF;stroke:#263238;stroke-linecap:round;stroke-linejoin:round;stroke-miterlimit:10;" d="
					M159.213,201.506c0,0,2.734-2.187,3.463,0c0.729,2.187-3.098,5.65-3.098,5.65L159.213,201.506z"/>
				<path style="fill:#263238;" d="M142.787,205.852c0,0.689-0.389,1.247-0.868,1.247c-0.479,0-0.868-0.559-0.868-1.247
					c0-0.689,0.389-1.247,0.868-1.247C142.398,204.605,142.787,205.163,142.787,205.852z"/>
				<path style="fill:#263238;" d="M151.781,205.379c0,0.689-0.389,1.247-0.868,1.247c-0.479,0-0.868-0.559-0.868-1.247
					c0-0.689,0.389-1.248,0.868-1.248C151.392,204.131,151.781,204.69,151.781,205.379z"/>
				<path style="fill:none;stroke:#263238;stroke-linecap:round;stroke-linejoin:round;stroke-miterlimit:10;" d="M138.684,201.434
					c0,0,1.42-2.209,5.207-1.262"/>
				<path style="fill:none;stroke:#263238;stroke-linecap:round;stroke-linejoin:round;stroke-miterlimit:10;" d="M147.994,199.541
					c0,0,3.156-1.42,5.522,1.104"/>
				<path style="fill:none;stroke:#263238;stroke-linecap:round;stroke-linejoin:round;stroke-miterlimit:10;" d="M141.525,213.584
					c0,0,5.996,3.945,10.73-1.105"/>
				<path style="fill:none;stroke:#263238;stroke-linecap:round;stroke-linejoin:round;stroke-miterlimit:10;" d="M144.68,209.639
					c0,0,1.893,1.105,2.84,0.631c0.947-0.473,0.947-1.42,0.947-1.42"/>
			</g>
			<path style="fill:#FFFFFF;stroke:#263238;stroke-linecap:round;stroke-linejoin:round;stroke-miterlimit:10;" d="
				M112.547,299.857c2.145-0.33,5.609-4.289,6.104-5.444c0.262-0.612,1.59-9.149,2.781-17.038c-2.877,0.591-6.127-1.145-8.353-2.722
				c-2.224,3.945-4.201,7.326-4.657,7.717c-1.155,0.99-4.619,7.919-3.465,12.703C106.113,299.857,110.402,300.187,112.547,299.857z"
				/>
			<g>
				<path style="fill:#FFFFFF;stroke:#263238;stroke-linecap:round;stroke-linejoin:round;stroke-miterlimit:10;" d="
					M120.466,261.252c0,0-2.64-12.868-1.485-13.528c1.155-0.66,11.219-1.98,11.714-1.65c0.495,0.33,0.99,10.394,0.99,10.394
					l-3.63,1.32c0,0,0.495,2.475-0.495,3.629c-0.99,1.155-4.124,2.475-4.124,2.475s-4.289,29.366-4.784,30.521
					c-0.495,1.155-3.959,5.114-6.104,5.444c-2.145,0.33-6.434,0-7.589-4.784c-1.155-4.784,2.31-11.714,3.465-12.703
					C109.577,281.379,120.466,261.252,120.466,261.252z"/>
				<path style="fill:#FFFFFF;stroke:#263238;stroke-linecap:round;stroke-linejoin:round;stroke-miterlimit:10;" d="
					M126.24,246.239c0,0,1.32-2.31,1.815-3.63c0.495-1.32,1.815-0.99,2.31,0.495c0.495,1.485,0.33,2.97,0.33,2.97L126.24,246.239z"
					/>
				
					<rect x="131.355" y="242.444" style="fill:#FFFFFF;stroke:#263238;stroke-linecap:round;stroke-linejoin:round;stroke-miterlimit:10;" width="13.198" height="17.983"/>
			</g>
			<path style="fill:#FFFFFF;stroke:#263238;stroke-linecap:round;stroke-linejoin:round;stroke-miterlimit:10;" d="
				M182.003,254.488c0,0,0.973-2.531,2.411-3.393s18.404-6.901,18.404-6.901L182.003,254.488z"/>
			<path style="fill:#FFFFFF;stroke:#263238;stroke-linecap:round;stroke-linejoin:round;stroke-miterlimit:10;" d="
				M182.003,254.488c0,0-2.478-3.106-3.628-3.393c-1.15-0.288-24.584-4.855-24.584-4.855L182.003,254.488z"/>
			<g>
				<polygon style="fill:#92E3A9;stroke:#263238;stroke-linecap:round;stroke-linejoin:round;stroke-miterlimit:10;" points="
					153.792,246.239 148.677,278.08 176.724,286.989 182.003,254.488 				"/>
				<polygon style="fill:#92E3A9;stroke:#263238;stroke-linecap:round;stroke-linejoin:round;stroke-miterlimit:10;" points="
					182.003,254.488 204.935,243.764 198.996,278.74 176.724,286.989 				"/>
			</g>
			<g>
				<path style="fill:#FFFFFF;stroke:#263238;stroke-linecap:round;stroke-linejoin:round;stroke-miterlimit:10;" d="
					M190.252,287.319c0,0-7.424-9.074-8.249-9.239c-0.825-0.165-1.32,1.32-0.66,2.475c0.66,1.155,4.619,6.764,4.619,6.764
					s-6.764-6.269-7.754-6.764c-0.99-0.495-2.145,0.66-1.98,1.65c0.165,0.99,6.269,7.589,6.269,7.589s-8.249-5.444-8.909-5.774
					c-0.66-0.33-0.99,1.32-0.165,2.145c0.825,0.825,1.815,2.475,1.815,2.475s2.64,3.63,3.135,4.125
					c0.495,0.495,1.98,2.97,4.289,2.64c2.31-0.33,7.424-3.465,8.084-5.279S190.252,287.319,190.252,287.319z"/>
				
					<line style="fill:#FFFFFF;stroke:#263238;stroke-linecap:round;stroke-linejoin:round;stroke-miterlimit:10;" x1="175.239" y1="288.638" x2="181.178" y2="293.588"/>
			</g>
			<path style="fill:#263238;stroke:#263238;stroke-linecap:round;stroke-linejoin:round;stroke-miterlimit:10;" d="
				M183.818,296.227c0,0,9.239,5.279,15.343,14.188c6.104,8.909,6.764,17.818,3.63,22.767c-3.135,4.949-7.754,5.279-10.889,5.279
				c-3.135,0-12.208,0-12.208,0s-0.33-8.909-2.145-12.208c-1.815-3.3-9.239-4.289-13.528-9.899
				c-4.29-5.609-2.805-20.622,5.279-22.767C177.384,291.443,183.818,296.227,183.818,296.227z"/>
			<path style="fill:#263238;stroke:#263238;stroke-linecap:round;stroke-linejoin:round;stroke-miterlimit:10;" d="
				M175.239,317.675c0,0,4.124,2.475,5.774,12.538c1.65,10.064,0.66,44.214,0.66,50.319c0,6.104,1.155,13.033,1.155,13.033
				l-11.878,1.65c0,0-4.124-15.838-8.414-34.151c-4.29-18.313-5.774-28.541-1.32-37.78
				C165.67,314.045,175.239,317.675,175.239,317.675z"/>
			<path style="fill:#263238;stroke:#263238;stroke-linecap:round;stroke-linejoin:round;stroke-miterlimit:10;" d="
				M181.673,306.621c0,0-3.795,11.219-11.219,22.107c-7.424,10.889-16.498,20.128-18.973,23.592
				c-2.475,3.465-9.074,13.363-9.074,13.363l-9.899-8.744c0,0,9.569-16.993,13.528-26.397c3.959-9.404,14.353-35.306,20.292-38.11
				c5.939-2.805,9.074-2.145,16.333,2.97l3.959,3.96"/>
			<g>
				<path style="fill:#FFFFFF;stroke:#263238;stroke-linecap:round;stroke-linejoin:round;stroke-miterlimit:10;" d="
					M132.509,356.94c0,0-5.939,1.485-10.064,1.485c-4.124,0-13.858-4.454-15.013-1.98c-1.155,2.475,4.289,10.559,7.589,14.188
					c3.3,3.63,6.434,7.094,8.909,9.734c2.475,2.64,5.114,3.465,6.764,2.805c1.65-0.66,11.714-17.488,11.714-17.488L132.509,356.94z"
					/>
				<path style="fill:#FFFFFF;stroke:#263238;stroke-linecap:round;stroke-linejoin:round;stroke-miterlimit:10;" d="
					M127.23,376.737c-1.98-2.145-8.414-12.043-11.714-16.333c-1.843-2.396-4.199-3.864-5.922-4.694
					c-1.089-0.053-1.882,0.134-2.162,0.735c-1.155,2.475,4.289,10.559,7.589,14.188c3.3,3.63,6.434,7.094,8.909,9.734
					c2.475,2.64,5.114,3.464,6.764,2.805c0.331-0.132,1.003-0.921,1.86-2.086C130.765,379.792,128.384,377.987,127.23,376.737z"/>
				<path style="fill:#999999;stroke:#263238;stroke-linecap:round;stroke-linejoin:round;stroke-miterlimit:10;" d="
					M110.567,359.084c-2.475-3.299-2.805-1.155-2.805-1.155l-0.459-0.245c0.366,3.277,4.85,9.794,7.718,12.949
					c3.3,3.63,6.434,7.094,8.909,9.734c2.475,2.64,5.114,3.464,6.764,2.805c0,0-4.125-2.97-7.424-6.269
					C119.971,373.602,113.042,362.384,110.567,359.084z"/>
			</g>
			<g>
				<path style="fill:#FFFFFF;stroke:#263238;stroke-linecap:round;stroke-linejoin:round;stroke-miterlimit:10;" d="
					M170.949,395.215c0,0-0.66,7.259-1.815,12.373c-1.155,5.114,1.485,8.414,3.3,9.239c1.815,0.825,12.868,0.165,14.518-0.33
					c1.65-0.495,3.63-1.98,1.98-7.259c-1.65-5.279-6.104-15.673-6.104-15.673L170.949,395.215z"/>
				<path style="fill:#FFFFFF;stroke:#263238;stroke-linecap:round;stroke-linejoin:round;stroke-miterlimit:10;" d="
					M186.952,416.497c1.155-0.346,2.466-1.183,2.587-3.46c-10.397,2.668-17.387,1.507-19.796,0.918
					c0.741,1.487,1.811,2.472,2.691,2.872C174.249,417.652,185.303,416.992,186.952,416.497z"/>
			</g>
		</g>
	</g>
</g>
</svg>
